<svg width="28" height="28" viewBox="0 0 28 28" fill="none" xmlns="http://www.w3.org/2000/svg">
<path d="M19.1689 17.9854C17.9326 17.5898 16.5811 18.2119 16.084 19.3965C16.0547 19.4648 16.0273 19.5342 16.001 19.6035C14.4346 18.9277 13.0098 17.9854 11.7568 16.7949C11.7549 16.7939 11.7539 16.792 11.752 16.791C11.5654 16.6152 11.3848 16.4346 11.209 16.248C11.208 16.2461 11.2061 16.2451 11.2051 16.2432C10.0146 14.9902 9.07227 13.5654 8.39648 11.999C8.46582 11.9727 8.53516 11.9453 8.60449 11.916C9.78906 11.418 10.4092 10.0635 10.0146 8.83008C7.18359 0 7.10938 0 6.19922 0C2.78125 0 0 2.78125 0 6.19922C0 18.2197 9.78027 28 21.8008 28C25.2188 28 28 25.2188 28 21.8008C28 20.8906 28 20.8164 19.1689 17.9854ZM21.8008 26C10.8828 26 2 17.1172 2 6.19922C2 4.08496 3.57129 2.33008 5.60645 2.04199C5.97266 2.96875 6.76758 5.25391 8.11035 9.44043C8.19141 9.69434 8.06836 9.97168 7.83008 10.0723C7.53027 10.1973 7.21777 10.2881 6.89941 10.3408C6.6084 10.3887 6.35352 10.5625 6.20312 10.8164C6.05176 11.0693 6.02148 11.377 6.11816 11.6553C6.89453 13.8906 8.11816 15.8975 9.75488 17.6201C9.95703 17.835 10.165 18.043 10.3799 18.2451C12.1025 19.8818 14.1094 21.1055 16.3447 21.8818C16.623 21.9795 16.9307 21.9473 17.1836 21.7969C17.4375 21.6465 17.6113 21.3916 17.6592 21.1006C17.7119 20.7822 17.8027 20.4697 17.9277 20.1709C18.0283 19.9316 18.3047 19.8105 18.5586 19.8896C22.7451 21.2324 25.0312 22.0273 25.958 22.3936C25.6699 24.4287 23.915 26 21.8008 26Z" fill="white"/>
</svg>
